<?xml version="1.0" standalone="no"?>
<!DOCTYPE svg PUBLIC "-//W3C//DTD SVG 20010904//EN"
 "http://www.w3.org/TR/2001/REC-SVG-20010904/DTD/svg10.dtd">
<svg version="1.0" xmlns="http://www.w3.org/2000/svg"
 width="225.000000pt" height="225.000000pt" viewBox="0 0 225.000000 225.000000"
 preserveAspectRatio="xMidYMid meet">
<metadata>
Created by potrace 1.14, written by Peter Selinger 2001-2017
</metadata>
<g transform="translate(0.000000,225.000000) scale(0.100000,-0.100000)"
fill="#000000" stroke="none">
<path d="M967 1652 c-10 -10 -17 -25 -17 -34 0 -23 -43 -58 -72 -58 -34 0 -51
-22 -44 -57 5 -23 2 -30 -16 -38 -28 -12 -35 -47 -13 -65 19 -16 19 -54 0 -70
-31 -26 -3 -87 35 -75 20 6 35 -9 44 -47 8 -37 42 -46 70 -19 27 25 53 27 78
4 15 -13 23 -14 44 -5 37 17 48 15 82 -18 26 -24 30 -34 25 -63 -8 -54 45 -79
71 -32 16 29 27 34 46 23 22 -14 45 -5 60 21 8 17 6 25 -11 42 -20 20 -21 23
-6 48 11 19 13 31 6 44 -13 22 7 87 26 87 13 0 35 29 35 45 0 3 -11 16 -24 28
-28 26 -35 63 -18 95 20 35 -1 64 -41 60 -39 -4 -117 39 -117 64 0 29 -37 42
-65 24 -31 -21 -108 -21 -125 -1 -17 20 -33 19 -53 -3z"/>
<path d="M262 958 c-25 -12 -37 -46 -28 -76 4 -10 29 -29 56 -42 54 -25 62
-43 30 -60 -16 -8 -28 -8 -50 3 -24 13 -31 13 -40 2 -9 -11 -5 -17 19 -29 16
-9 42 -16 56 -16 25 0 75 39 75 58 0 20 -42 61 -74 72 -40 13 -51 33 -30 51
12 10 22 10 46 1 56 -21 68 11 13 34 -40 16 -42 16 -73 2z"/>
<path d="M560 963 c-62 -19 -90 -56 -90 -119 0 -53 53 -104 108 -104 52 0 92
31 92 71 0 28 -2 29 -45 29 -33 0 -45 -4 -45 -15 0 -9 9 -15 25 -15 33 0 32
-18 -1 -30 -34 -13 -74 6 -92 42 -10 23 -10 33 2 62 18 42 53 55 104 36 23 -8
37 -9 44 -2 19 19 -66 57 -102 45z"/>
<path d="M1643 963 c-13 -2 -36 -18 -53 -34 -24 -25 -30 -39 -30 -76 0 -38 5
-50 34 -79 27 -27 42 -34 74 -34 46 0 94 31 76 49 -7 8 -20 7 -43 -5 -39 -19
-70 -9 -96 30 -35 52 12 125 72 113 16 -3 38 -8 51 -12 16 -5 22 -3 22 7 0 25
-64 49 -107 41z"/>
<path d="M402 853 c3 -93 5 -108 21 -111 15 -3 17 7 17 107 0 105 -1 111 -20
111 -20 0 -21 -5 -18 -107z"/>
<path d="M692 853 c3 -93 5 -108 21 -111 14 -3 17 4 17 42 l0 46 58 0 57 0 0
-42 c0 -33 4 -43 18 -46 15 -3 17 7 17 107 0 106 -1 111 -21 111 -19 0 -21 -5
-17 -45 l3 -45 -57 0 -58 0 0 45 c0 39 -3 45 -20 45 -20 0 -21 -5 -18 -107z"/>
<path d="M910 945 c0 -10 11 -15 35 -15 l35 0 0 -96 c0 -86 2 -95 18 -92 15 3
17 16 17 93 l0 90 34 5 c19 3 36 11 39 18 3 9 -19 12 -87 12 -74 0 -91 -3 -91
-15z"/>
<path d="M1180 945 c0 -10 11 -15 35 -15 l35 0 0 -96 c0 -86 2 -95 18 -92 14
3 17 17 20 96 l3 92 34 0 c24 0 35 5 35 15 0 12 -17 15 -90 15 -73 0 -90 -3
-90 -15z"/>
<path d="M1380 850 l0 -110 75 0 c68 0 75 2 75 20 0 18 -7 20 -55 20 -52 0
-55 1 -55 24 0 21 6 25 33 28 20 2 32 8 32 18 0 10 -12 16 -32 18 -29 3 -33 7
-33 33 0 29 1 29 55 29 42 0 55 3 55 15 0 12 -15 15 -75 15 l-75 0 0 -110z"/>
<path d="M1780 850 c0 -103 1 -110 20 -110 17 0 20 7 20 45 l0 45 54 0 55 0 3
-42 c2 -31 8 -44 21 -46 15 -3 17 7 17 107 0 104 -1 111 -20 111 -17 0 -20 -7
-20 -45 l0 -45 -55 0 -55 0 0 45 c0 38 -3 45 -20 45 -19 0 -20 -7 -20 -110z"/>
<path d="M748 683 c-10 -2 -18 -12 -18 -22 0 -15 10 -17 68 -18 37 0 59 2 50
4 -9 2 -16 10 -14 16 1 7 1 9 -1 5 -8 -13 -25 -9 -18 5 4 6 0 4 -8 -6 -15 -18
-15 -18 -20 0 -4 16 -5 16 -6 1 0 -10 -8 -18 -16 -18 -18 0 -19 12 -3 28 7 7
10 11 8 11 -3 -1 -13 -3 -22 -6z"/>
<path d="M1085 680 c-4 -6 -11 -8 -16 -5 -5 4 -9 -1 -9 -9 0 -22 -17 -20 -23
2 -4 16 -5 16 -6 0 0 -10 -5 -18 -10 -18 -5 0 -12 8 -14 18 -4 16 -5 16 -6 0
0 -10 -6 -18 -12 -18 -5 0 -8 4 -4 9 3 5 1 12 -5 16 -5 3 -10 -3 -10 -15 0
-19 5 -20 70 -19 60 1 70 4 70 20 0 21 -16 34 -25 19z"/>
<path d="M1205 680 c-4 -6 -10 -8 -15 -5 -9 6 -21 -20 -13 -29 4 -3 13 3 20
14 8 11 19 17 25 14 7 -4 8 -2 4 4 -9 15 -13 15 -21 2z"/>
<path d="M1324 679 c-3 -6 -15 -9 -25 -6 -14 4 -19 0 -19 -16 0 -17 2 -19 9
-8 7 11 13 12 23 3 17 -13 58 -12 58 3 0 5 5 3 10 -5 8 -12 10 -10 10 9 0 13
-3 22 -6 18 -3 -3 -17 -2 -30 3 -15 6 -26 6 -30 -1z"/>
<path d="M578 663 c-4 -13 2 -18 19 -19 12 -1 23 3 23 10 0 6 5 4 10 -4 8 -12
10 -11 10 8 0 13 -6 22 -15 22 -8 0 -15 -4 -15 -10 0 -5 -5 -10 -11 -10 -5 0
-7 5 -4 10 3 6 2 10 -3 10 -5 0 -12 -8 -14 -17z"/>
<path d="M662 660 c0 -14 2 -19 5 -12 2 6 2 18 0 25 -3 6 -5 1 -5 -13z"/>
<path d="M682 660 c0 -14 2 -19 5 -12 2 6 2 18 0 25 -3 6 -5 1 -5 -13z"/>
<path d="M700 670 c0 -5 5 -10 11 -10 5 0 7 5 4 10 -3 6 -8 10 -11 10 -2 0 -4
-4 -4 -10z"/>
<path d="M880 660 c0 -24 15 -27 24 -4 9 22 8 24 -9 24 -8 0 -15 -9 -15 -20z"/>
<path d="M917 665 c-4 -8 -2 -17 3 -20 6 -4 10 3 10 14 0 25 -6 27 -13 6z"/>
<path d="M1120 661 c0 -25 35 -29 44 -5 8 21 8 24 -4 24 -5 0 -10 -7 -10 -15
0 -8 -5 -15 -11 -15 -5 0 -8 4 -4 9 3 5 1 12 -5 16 -5 3 -10 -3 -10 -14z"/>
<path d="M1240 670 c0 -5 5 -10 11 -10 5 0 7 5 4 10 -3 6 -8 10 -11 10 -2 0
-4 -4 -4 -10z"/>
<path d="M1410 655 c0 -16 2 -17 10 -5 7 11 12 12 18 4 4 -7 32 -12 62 -11 30
0 49 2 43 4 -7 3 -13 12 -14 21 0 11 -2 12 -6 5 -2 -7 -9 -13 -14 -13 -6 0 -7
5 -4 10 3 6 1 10 -4 10 -6 0 -11 -7 -11 -15 0 -8 -8 -15 -17 -15 -15 0 -16 2
-3 10 16 10 13 12 -32 14 -22 2 -28 -2 -28 -19z"/>
<path d="M1562 660 c0 -14 2 -19 5 -12 2 6 2 18 0 25 -3 6 -5 1 -5 -13z"/>
<path d="M1583 663 c0 -7 5 -9 10 -6 5 3 13 -1 18 -8 7 -11 9 -9 9 6 0 13 -7
21 -18 21 -10 0 -19 -6 -19 -13z"/>
<path d="M1208 643 c7 -3 16 -2 19 1 4 3 -2 6 -13 5 -11 0 -14 -3 -6 -6z"/>
</g>
</svg>
